<svg width="80" height="32" viewBox="0 0 80 32" fill="none" xmlns="http://www.w3.org/2000/svg">
<rect x="1" y="1" width="30" height="30" rx="15" fill="black" fill-opacity="0.2"/>
<rect x="1" y="1" width="30" height="30" rx="15" stroke="white" stroke-width="2"/>
<rect x="25" y="1" width="30" height="30" rx="15" fill="black" fill-opacity="0.2"/>
<rect x="25" y="1" width="30" height="30" rx="15" stroke="white" stroke-width="2"/>
<rect x="48" width="32" height="32" rx="16" fill="#F2F4F7"/>
<path d="M59.9979 18.9489V13.8068H61.429V18.9489H59.9979ZM58.1406 17.0952V15.6605H63.2827V17.0952H58.1406ZM67.4668 20.0994C66.9365 20.0994 66.4654 20.0036 66.0534 19.8118C65.6415 19.62 65.316 19.3561 65.0769 19.0199C64.8401 18.6837 64.717 18.2978 64.7076 17.8622H66.4121C66.4263 18.1297 66.5352 18.3452 66.7388 18.5085C66.9424 18.6695 67.1851 18.75 67.4668 18.75C67.687 18.75 67.8823 18.7015 68.0527 18.6044C68.2232 18.5073 68.3569 18.3712 68.454 18.196C68.5511 18.0185 68.5984 17.8149 68.5961 17.5852C68.5984 17.3509 68.5499 17.1461 68.4505 16.9709C68.3534 16.7957 68.2185 16.6596 68.0456 16.5625C67.8752 16.4631 67.6787 16.4134 67.4561 16.4134C67.2454 16.411 67.0454 16.4571 66.856 16.5518C66.669 16.6465 66.5269 16.7756 66.4299 16.9389L64.878 16.6477L65.1941 12.7273H69.8603V14.1442H66.6394L66.4725 15.8594H66.5151C66.6358 15.6581 66.83 15.4924 67.0975 15.3622C67.3674 15.2296 67.6739 15.1634 68.0172 15.1634C68.4528 15.1634 68.8411 15.2652 69.182 15.4688C69.5253 15.67 69.7952 15.9493 69.9917 16.3068C70.1905 16.6643 70.29 17.0739 70.29 17.5355C70.29 18.035 70.1716 18.4777 69.9348 18.8636C69.7005 19.2495 69.3714 19.5526 68.9476 19.7727C68.5262 19.9905 68.0326 20.0994 67.4668 20.0994Z" fill="#606C80"/>
</svg>
